<svg version="1.1"
  xmlns="http://www.w3.org/2000/svg"
  xmlns:xlink="http://www.w3.org/1999/xlink" width="642.7734375" height="435">
  <defs/>
  <g>
    <g>
      <rect fill="#C0C0C0" stroke="none" x="783" y="239" width="116.57080078125" height="103" transform="matrix(1 0 0 1 -510 -150)" fill-opacity="0.2"/>
    </g>
    <g>
      <rect fill="#ffffff" stroke="none" x="776" y="232" width="116.57080078125" height="103" transform="matrix(1 0 0 1 -510 -150)"/>
    </g>
    <g>
      <path fill="none" stroke="#000000" paint-order="fill stroke markers" d=" M 266 82 L 382.57080078125 82 L 382.57080078125 185 L 266 185 L 266 82 Z Z" stroke-miterlimit="10" stroke-dasharray=""/>
    </g>
    <g>
      <path fill="none" stroke="#000000" paint-order="fill stroke markers" d=" M 266 107 L 383.57080078125 107" stroke-miterlimit="10" stroke-dasharray=""/>
    </g>
    <g>
      <path fill="none" stroke="#000000" paint-order="fill stroke markers" d=" M 266 160 L 383.57080078125 160" stroke-miterlimit="10" stroke-dasharray=""/>
    </g>
    <g>
      <g>
        <path fill="none" stroke="none"/>
        <text fill="#000000" stroke="none" font-family="Arial" font-size="13px" font-style="normal" font-weight="bold" text-decoration="undefined" x="834.785400390625" y="245.5" text-anchor="middle" dominant-baseline="central" transform="matrix(1 0 0 1 -510 -150)">Rover</text>
      </g>
    </g>
    <g>
      <g>
        <path fill="none" stroke="none"/>
        <text fill="#000000" stroke="none" font-family="Arial" font-size="13px" font-style="normal" font-weight="normal" text-decoration="undefined" x="781" y="268.5" text-anchor="start" dominant-baseline="central" transform="matrix(1 0 0 1 -510 -150)">-Coordinates</text>
      </g>
    </g>
    <g>
      <g>
        <path fill="none" stroke="none"/>
        <text fill="#000000" stroke="none" font-family="Arial" font-size="13px" font-style="normal" font-weight="normal" text-decoration="undefined" x="781" y="283.5" text-anchor="start" dominant-baseline="central" transform="matrix(1 0 0 1 -510 -150)">-Direction</text>
      </g>
    </g>
    <g>
      <g>
        <path fill="none" stroke="none"/>
        <text fill="#000000" stroke="none" font-family="Arial" font-size="13px" font-style="normal" font-weight="normal" text-decoration="undefined" x="781" y="298.5" text-anchor="start" dominant-baseline="central" transform="matrix(1 0 0 1 -510 -150)">-ObstaclesGrid</text>
      </g>
    </g>
    <g>
      <g>
        <path fill="none" stroke="none"/>
        <text fill="#000000" stroke="none" font-family="Arial" font-size="13px" font-style="normal" font-weight="normal" text-decoration="undefined" x="781" y="323.5" text-anchor="start" dominant-baseline="central" transform="matrix(1 0 0 1 -510 -150)">+ReportObstacle()</text>
      </g>
    </g>
    <g>
      <rect fill="#C0C0C0" stroke="none" x="1023" y="415" width="87.68896484375" height="58" transform="matrix(1 0 0 1 -510 -150)" fill-opacity="0.2"/>
    </g>
    <g>
      <rect fill="#ffffff" stroke="none" x="1016" y="408" width="87.68896484375" height="58" transform="matrix(1 0 0 1 -510 -150)"/>
    </g>
    <g>
      <path fill="none" stroke="#000000" paint-order="fill stroke markers" d=" M 506 258 L 593.68896484375 258 L 593.68896484375 316 L 506 316 L 506 258 Z Z" stroke-miterlimit="10" stroke-dasharray=""/>
    </g>
    <g>
      <path fill="none" stroke="#000000" paint-order="fill stroke markers" d=" M 506 283 L 594.68896484375 283" stroke-miterlimit="10" stroke-dasharray=""/>
    </g>
    <g>
      <path fill="none" stroke="#000000" paint-order="fill stroke markers" d=" M 506 306 L 594.68896484375 306" stroke-miterlimit="10" stroke-dasharray=""/>
    </g>
    <g>
      <g>
        <path fill="none" stroke="none"/>
        <text fill="#000000" stroke="none" font-family="Arial" font-size="13px" font-style="normal" font-weight="bold" text-decoration="undefined" x="1060.344482421875" y="421.5" text-anchor="middle" dominant-baseline="central" transform="matrix(1 0 0 1 -510 -150)">Obstacle</text>
      </g>
    </g>
    <g>
      <g>
        <path fill="none" stroke="none"/>
        <text fill="#000000" stroke="none" font-family="Arial" font-size="13px" font-style="normal" font-weight="normal" text-decoration="undefined" x="1021" y="444.5" text-anchor="start" dominant-baseline="central" transform="matrix(1 0 0 1 -510 -150)">+Coordinates</text>
      </g>
    </g>
    <g>
      <rect fill="#C0C0C0" stroke="none" x="991" y="295" width="157.7734375" height="73" transform="matrix(1 0 0 1 -510 -150)" fill-opacity="0.2"/>
    </g>
    <g>
      <rect fill="#ffffff" stroke="none" x="984" y="288" width="157.7734375" height="73" transform="matrix(1 0 0 1 -510 -150)"/>
    </g>
    <g>
      <path fill="none" stroke="#000000" paint-order="fill stroke markers" d=" M 474 138 L 631.7734375 138 L 631.7734375 211 L 474 211 L 474 138 Z Z" stroke-miterlimit="10" stroke-dasharray=""/>
    </g>
    <g>
      <path fill="none" stroke="#000000" paint-order="fill stroke markers" d=" M 474 163 L 632.7734375 163" stroke-miterlimit="10" stroke-dasharray=""/>
    </g>
    <g>
      <path fill="none" stroke="#000000" paint-order="fill stroke markers" d=" M 474 201 L 632.7734375 201" stroke-miterlimit="10" stroke-dasharray=""/>
    </g>
    <g>
      <g>
        <path fill="none" stroke="none"/>
        <text fill="#000000" stroke="none" font-family="Arial" font-size="13px" font-style="normal" font-weight="bold" text-decoration="undefined" x="1063.38671875" y="301.5" text-anchor="middle" dominant-baseline="central" transform="matrix(1 0 0 1 -510 -150)">Grid</text>
      </g>
    </g>
    <g>
      <g>
        <path fill="none" stroke="none"/>
        <text fill="#000000" stroke="none" font-family="Arial" font-size="13px" font-style="normal" font-weight="normal" text-decoration="undefined" x="989" y="324.5" text-anchor="start" dominant-baseline="central" transform="matrix(1 0 0 1 -510 -150)">+size: {x, y}</text>
      </g>
    </g>
    <g>
      <g>
        <path fill="none" stroke="none"/>
        <text fill="#000000" stroke="none" font-family="Arial" font-size="13px" font-style="normal" font-weight="normal" text-decoration="undefined" x="989" y="339.5" text-anchor="start" dominant-baseline="central" transform="matrix(1 0 0 1 -510 -150)">+obstacles: Obstacle[0..*]</text>
      </g>
    </g>
    <g>
      <path fill="#C0C0C0" stroke="none" paint-order="stroke fill markers" d=" M 67.989013671875 165 C 67.989013671875 158.3725824 73.36159607187506 153 79.989013671875 153 C 86.61643127187494 153 91.989013671875 158.3725824 91.989013671875 165 C 91.989013671875 171.6274176 86.61643127187494 177 79.989013671875 177 C 73.36159607187506 177 67.989013671875 171.6274176 67.989013671875 165 Z" fill-opacity="0.2"/>
    </g>
    <g>
      <path fill="#ffffff" stroke="none" paint-order="stroke fill markers" d=" M 60.989013671875 158 C 60.989013671875 151.3725824 66.36159607187506 146 72.989013671875 146 C 79.61643127187494 146 84.989013671875 151.3725824 84.989013671875 158 C 84.989013671875 164.6274176 79.61643127187494 170 72.989013671875 170 C 66.36159607187506 170 60.989013671875 164.6274176 60.989013671875 158 Z"/>
    </g>
    <g>
      <path fill="none" stroke="#000000" paint-order="fill stroke markers" d=" M 60.989013671875 158 C 60.989013671875 151.3725824 66.36159607187506 146 72.989013671875 146 C 79.61643127187494 146 84.989013671875 151.3725824 84.989013671875 158 C 84.989013671875 164.6274176 79.61643127187494 170 72.989013671875 170 C 66.36159607187506 170 60.989013671875 164.6274176 60.989013671875 158 Z" stroke-miterlimit="10" stroke-dasharray=""/>
    </g>
    <g>
      <path fill="none" stroke="#000000" paint-order="fill stroke markers" d=" M 10 195 L 136.97802734375 195" stroke-miterlimit="10" stroke-dasharray=""/>
    </g>
    <g>
      <path fill="none" stroke="#000000" paint-order="fill stroke markers" d=" M 10 218 L 136.97802734375 218" stroke-miterlimit="10" stroke-dasharray=""/>
    </g>
    <g>
      <g>
        <path fill="none" stroke="none"/>
        <text fill="#000000" stroke="none" font-family="Arial" font-size="13px" font-style="normal" font-weight="bold" text-decoration="undefined" x="583.489013671875" y="333.5" text-anchor="middle" dominant-baseline="central" transform="matrix(1 0 0 1 -510 -150)">IReceiver</text>
      </g>
    </g>
    <g>
      <g>
        <path fill="none" stroke="none"/>
        <text fill="#000000" stroke="none" font-family="Arial" font-size="13px" font-style="normal" font-weight="normal" text-decoration="undefined" x="525" y="356.5" text-anchor="start" dominant-baseline="central" transform="matrix(1 0 0 1 -510 -150)">+InstructionSet</text>
      </g>
    </g>
    <g>
      <g>
        <path fill="none" stroke="none"/>
        <text fill="#000000" stroke="none" font-family="Arial" font-size="13px" font-style="normal" font-weight="normal" text-decoration="undefined" x="525" y="379.5" text-anchor="start" dominant-baseline="central" transform="matrix(1 0 0 1 -510 -150)">+ReceiveData(data)</text>
      </g>
    </g>
    <g>
      <path fill="none" stroke="#000000" paint-order="fill stroke markers" d=" M 265 147 L 84.989013671875 161.99661959134613" stroke-miterlimit="10" stroke-dasharray=""/>
    </g>
    <g>
      <rect fill="#ffffff" stroke="none" x="648" y="312" width="74.05810546875" height="13" transform="matrix(1 0 0 1 -510 -150)"/>
    </g>
    <g>
      <g>
        <path fill="none" stroke="none"/>
        <text fill="#000000" stroke="none" font-family="Arial" font-size="13px" font-style="normal" font-weight="normal" text-decoration="undefined" x="685.029052734375" y="318.5" text-anchor="middle" dominant-baseline="central" transform="matrix(1 0 0 1 -510 -150)">+implements</text>
      </g>
    </g>
    <g>
      <path fill="#ffffff" stroke="none" paint-order="stroke fill markers" d=" M 146 10 L 205 10 L 215 20 L 215 73 L 146 73 L 146 10"/>
    </g>
    <g>
      <path fill="none" stroke="#000000" paint-order="fill stroke markers" d=" M 146 10 L 205 10 L 215 20 L 215 73 L 146 73 L 146 10 L 146 10" stroke-miterlimit="10" stroke-dasharray=""/>
    </g>
    <g>
      <path fill="none" stroke="#000000" paint-order="fill stroke markers" d=" M 205 10 L 205 20 L 215 20 L 205 10" stroke-miterlimit="10" stroke-dasharray=""/>
    </g>
    <g>
      <g>
        <path fill="none" stroke="none"/>
        <text fill="#000000" stroke="none" font-family="Arial" font-size="13px" font-style="normal" font-weight="normal" text-decoration="undefined" x="661" y="165" text-anchor="start" dominant-baseline="text-before-edge" transform="matrix(1 0 0 1 -510 -150)">User</text>
        <text fill="#000000" stroke="none" font-family="Arial" font-size="13px" font-style="normal" font-weight="normal" text-decoration="undefined" x="661" y="178" text-anchor="start" dominant-baseline="text-before-edge" transform="matrix(1 0 0 1 -510 -150)">sends</text>
        <text fill="#000000" stroke="none" font-family="Arial" font-size="13px" font-style="normal" font-weight="normal" text-decoration="undefined" x="661" y="191" text-anchor="start" dominant-baseline="text-before-edge" transform="matrix(1 0 0 1 -510 -150)">data to</text>
        <text fill="#000000" stroke="none" font-family="Arial" font-size="13px" font-style="normal" font-weight="normal" text-decoration="undefined" x="661" y="204" text-anchor="start" dominant-baseline="text-before-edge" transform="matrix(1 0 0 1 -510 -150)">rover</text>
      </g>
    </g>
    <g>
      <path fill="none" stroke="#000000" paint-order="fill stroke markers" d=" M 217 65 L 265 95" stroke-miterlimit="10" stroke-dasharray="3"/>
    </g>
    <g>
      <path fill="#C0C0C0" stroke="none" paint-order="stroke fill markers" d=" M 94.55859375 317 C 94.55859375 310.3725824 99.93117615000006 305 106.55859375 305 C 113.18601134999994 305 118.55859375 310.3725824 118.55859375 317 C 118.55859375 323.6274176 113.18601134999994 329 106.55859375 329 C 99.93117615000006 329 94.55859375 323.6274176 94.55859375 317 Z" fill-opacity="0.2"/>
    </g>
    <g>
      <path fill="#ffffff" stroke="none" paint-order="stroke fill markers" d=" M 87.55859375 310 C 87.55859375 303.3725824 92.93117615000006 298 99.55859375 298 C 106.18601134999994 298 111.55859375 303.3725824 111.55859375 310 C 111.55859375 316.6274176 106.18601134999994 322 99.55859375 322 C 92.93117615000006 322 87.55859375 316.6274176 87.55859375 310 Z"/>
    </g>
    <g>
      <path fill="none" stroke="#000000" paint-order="fill stroke markers" d=" M 87.55859375 310 C 87.55859375 303.3725824 92.93117615000006 298 99.55859375 298 C 106.18601134999994 298 111.55859375 303.3725824 111.55859375 310 C 111.55859375 316.6274176 106.18601134999994 322 99.55859375 322 C 92.93117615000006 322 87.55859375 316.6274176 87.55859375 310 Z" stroke-miterlimit="10" stroke-dasharray=""/>
    </g>
    <g>
      <path fill="none" stroke="#000000" paint-order="fill stroke markers" d=" M 42 347 L 158.1171875 347" stroke-miterlimit="10" stroke-dasharray=""/>
    </g>
    <g>
      <path fill="none" stroke="#000000" paint-order="fill stroke markers" d=" M 42 357 L 158.1171875 357" stroke-miterlimit="10" stroke-dasharray=""/>
    </g>
    <g>
      <g>
        <path fill="none" stroke="none"/>
        <text fill="#000000" stroke="none" font-family="Arial" font-size="13px" font-style="normal" font-weight="bold" text-decoration="undefined" x="610.05859375" y="485.5" text-anchor="middle" dominant-baseline="central" transform="matrix(1 0 0 1 -510 -150)">ICommand</text>
      </g>
    </g>
    <g>
      <g>
        <path fill="none" stroke="none"/>
        <text fill="#000000" stroke="none" font-family="Arial" font-size="13px" font-style="normal" font-weight="normal" text-decoration="undefined" x="557" y="518.5" text-anchor="start" dominant-baseline="central" transform="matrix(1 0 0 1 -510 -150)">+MoveForward()</text>
      </g>
    </g>
    <g>
      <g>
        <path fill="none" stroke="none"/>
        <text fill="#000000" stroke="none" font-family="Arial" font-size="13px" font-style="normal" font-weight="normal" text-decoration="undefined" x="557" y="533.5" text-anchor="start" dominant-baseline="central" transform="matrix(1 0 0 1 -510 -150)">+MoveBackward()</text>
      </g>
    </g>
    <g>
      <g>
        <path fill="none" stroke="none"/>
        <text fill="#000000" stroke="none" font-family="Arial" font-size="13px" font-style="normal" font-weight="normal" text-decoration="undefined" x="557" y="548.5" text-anchor="start" dominant-baseline="central" transform="matrix(1 0 0 1 -510 -150)">+TurnLeft()</text>
      </g>
    </g>
    <g>
      <g>
        <path fill="none" stroke="none"/>
        <text fill="#000000" stroke="none" font-family="Arial" font-size="13px" font-style="normal" font-weight="normal" text-decoration="undefined" x="557" y="563.5" text-anchor="start" dominant-baseline="central" transform="matrix(1 0 0 1 -510 -150)">+TurnRight()</text>
      </g>
    </g>
    <g>
      <path fill="none" stroke="#000000" paint-order="fill stroke markers" d=" M 272 186 L 111.55859375 308.084282309322" stroke-miterlimit="10" stroke-dasharray=""/>
    </g>
    <g>
      <rect fill="#ffffff" stroke="none" x="673" y="402" width="74.05810546875" height="13" transform="matrix(1 0 0 1 -510 -150)"/>
    </g>
    <g>
      <g>
        <path fill="none" stroke="none"/>
        <text fill="#000000" stroke="none" font-family="Arial" font-size="13px" font-style="normal" font-weight="normal" text-decoration="undefined" x="710.029052734375" y="408.5" text-anchor="middle" dominant-baseline="central" transform="matrix(1 0 0 1 -510 -150)">+implements</text>
      </g>
    </g>
    <g>
      <path fill="none" stroke="#000000" paint-order="fill stroke markers" d=" M 550 257 L 551 212" stroke-miterlimit="10" stroke-dasharray=""/>
    </g>
    <g>
      <path fill="#000000" stroke="none" paint-order="stroke fill markers" d=" M 554.9826972762894 222.25368823426174 L 551 212 L 546.5657397688583 222.0666447340966 L 550.5112317797268 233.99456991229545"/>
    </g>
    <g>
      <path fill="none" stroke="#000000" paint-order="fill stroke markers" d=" M 554.9826972762894 222.25368823426174 L 551 212 L 546.5657397688583 222.0666447340966 L 550.5112317797268 233.99456991229545 L 554.9826972762894 222.25368823426174" stroke-miterlimit="10" stroke-dasharray=""/>
    </g>
    <g>
      <path fill="none" stroke="#000000" paint-order="fill stroke markers" d=" M 473 160 L 384 144" stroke-miterlimit="10" stroke-dasharray=""/>
    </g>
    <g>
      <path fill="#000000" stroke="none" paint-order="stroke fill markers" d=" M 394.747153635602 141.6550716998663 L 384 144 L 393.2574999166086 149.94127051176702 L 405.6528809744642 147.89265275945422"/>
    </g>
    <g>
      <path fill="none" stroke="#000000" paint-order="fill stroke markers" d=" M 394.747153635602 141.6550716998663 L 384 144 L 393.2574999166086 149.94127051176702 L 405.6528809744642 147.89265275945422 L 394.747153635602 141.6550716998663" stroke-miterlimit="10" stroke-dasharray=""/>
    </g>
  </g>
</svg>